<?xml version="1.0" encoding="utf-8"?>
<!-- Generator: Adobe Illustrator 21.0.2, SVG Export Plug-In . SVG Version: 6.00 Build 0)  -->
<!DOCTYPE svg PUBLIC "-//W3C//DTD SVG 1.1//EN" "http://www.w3.org/Graphics/SVG/1.1/DTD/svg11.dtd">
<svg version="1.1" id="Layer_1" xmlns="http://www.w3.org/2000/svg" xmlns:xlink="http://www.w3.org/1999/xlink" x="0px" y="0px"
	 viewBox="0 0 25 25" style="enable-background:new 0 0 25 25;" xml:space="preserve">
<style type="text/css">
	.st0{fill:#FFFFFF;}
</style>
<title>embed</title>
<g>
	<polygon class="st0" points="0.5,12.8 0.5,12.2 7.8,8 7.8,9.1 2,12.5 7.8,15.9 7.8,17 	"/>
	<polygon class="st0" points="8.3,7.1 0,12 0,13 8.3,17.9 8.3,15.6 3,12.5 8.3,9.4 8.3,7.1 	"/>
</g>
<g>
	<polygon class="st0" points="17.3,15.9 23,12.5 17.3,9.1 17.3,8 24.5,12.2 24.5,12.8 17.3,17 	"/>
	<polygon class="st0" points="16.8,7.1 16.8,9.4 22,12.5 16.8,15.6 16.8,17.9 25,13 25,12 16.8,7.1 	"/>
</g>
<g>
	<polygon class="st0" points="10.8,19.5 13.1,5.5 14.2,5.5 11.9,19.5 	"/>
	<path class="st0" d="M13.6,6L11.5,19h-0.1L13.5,6H13.6 M14.8,5h-2.2L10.2,20h2.2L14.8,5L14.8,5z"/>
</g>
</svg>
