<?xml version="1.0" encoding="utf-8"?>
<!-- Generator: Adobe Illustrator 21.0.2, SVG Export Plug-In . SVG Version: 6.00 Build 0)  -->
<!DOCTYPE svg PUBLIC "-//W3C//DTD SVG 1.1//EN" "http://www.w3.org/Graphics/SVG/1.1/DTD/svg11.dtd">
<svg version="1.1" id="Layer_1" xmlns="http://www.w3.org/2000/svg" xmlns:xlink="http://www.w3.org/1999/xlink" x="0px" y="0px"
	 viewBox="0 0 25 25" style="enable-background:new 0 0 25 25;" xml:space="preserve">
<style type="text/css">
	.st0{fill:#FFFFFF;}
</style>
<title>facebook</title>
<g id="nFaN66.tif">
	<path class="st0" d="M18.2,1.3H19l1.9,0.1h0.3L21.1,5h-2.4c-0.2,0-0.4,0-0.6,0c-0.5,0-0.9,0.4-0.9,0.9c0,0.2-0.1,0.4-0.1,0.6
		c0,0.9,0,1.8,0,2.7c0,0,0,0.1,0,0.1h4.1L21,13.1h-4v10.6h-4V13.2h-2.8V9.4H13V9.3c0-1,0-2,0-3.1c0-0.4,0-0.8,0.1-1.1
		c0.2-1.2,1-2.3,2.1-3c0.7-0.4,1.5-0.7,2.4-0.7L18.2,1.3z"/>
</g>
</svg>
