<?xml version="1.0" encoding="utf-8"?>
<!-- Generator: Adobe Illustrator 21.0.2, SVG Export Plug-In . SVG Version: 6.00 Build 0)  -->
<!DOCTYPE svg PUBLIC "-//W3C//DTD SVG 1.1//EN" "http://www.w3.org/Graphics/SVG/1.1/DTD/svg11.dtd">
<svg version="1.1" id="Layer_1" xmlns="http://www.w3.org/2000/svg" xmlns:xlink="http://www.w3.org/1999/xlink" x="0px" y="0px"
	 viewBox="0 0 25 25" style="enable-background:new 0 0 25 25;" xml:space="preserve">
<style type="text/css">
	.st0{fill:#FFFFFF;}
</style>
<title>github</title>
<g id="jZoAGN.tif">
	<g>
		<path class="st0" d="M2.9,1.9c0,0,0.1,0,0.1,0c0.6,0.2,1.2,0.3,1.7,0.5C6.2,3,7.6,3.7,8.9,4.6C9,4.7,9.2,4.7,9.3,4.7
			c0.5-0.1,1.1-0.2,1.6-0.2c1.6-0.1,3.2-0.1,4.9,0.2c0.1,0,0.3,0,0.4-0.1c1.2-0.8,2.4-1.5,3.7-2c0.7-0.3,1.5-0.5,2.2-0.7
			c0,0,0.1,0,0.1,0c0.4,1,0.7,2,0.8,3.1C23,5.8,23,6.7,23,7.5c0,0.3,0.1,0.6,0.3,0.8c1,1.2,1.6,2.6,1.7,4.1c0.1,1.5,0,3-0.4,4.5
			c-0.8,2.9-2.8,4.8-5.7,5.7c-1.3,0.4-2.7,0.5-4,0.5c-1.5,0-3.1,0-4.6,0c-1.7,0-3.3-0.2-4.9-0.8c-2-0.8-3.5-2.1-4.3-4.1
			c-0.7-1.6-1-3.3-1-5.1c0-1.8,0.5-3.3,1.7-4.7C1.9,8.1,2,7.9,2,7.5C1.8,6.2,2,4.9,2.3,3.7C2.5,3.1,2.7,2.5,2.9,1.9z M12.5,21.9
			c0.9,0,1.7,0,2.6-0.1c1.1-0.1,2.1-0.2,3.1-0.5c0.8-0.3,1.6-0.7,2.2-1.3c1.3-1.3,1.5-4.1,0.8-5.5c-0.7-1.3-1.7-2.2-3.2-2.2
			c-0.9-0.1-1.8,0-2.8,0c-1.6,0.1-3.3,0.2-4.9,0c-1.2-0.1-2.3-0.2-3.5-0.1c-1.6,0.2-2.6,1-3.2,2.5c-0.4,1-0.4,2.1-0.2,3.1
			c0.3,1.4,1,2.4,2.2,3c0.7,0.4,1.5,0.6,2.3,0.8C9.5,21.9,11,21.9,12.5,21.9z"/>
		<path class="st0" d="M18.6,16.6c0,0.8-0.2,1.5-0.7,2.1c-0.6,0.6-1.5,0.6-2.1,0c-0.9-0.9-1-2.8-0.1-3.8c0.8-0.9,1.8-0.8,2.4,0.2
			C18.4,15.5,18.6,16,18.6,16.6z"/>
		<path class="st0" d="M6.4,16.5c0-0.5,0.2-1,0.5-1.5c0.6-1,1.7-1.1,2.4-0.2c0.8,0.9,0.8,2.8,0,3.7c-0.7,0.9-1.8,0.8-2.4-0.1
			C6.5,17.9,6.4,17.2,6.4,16.5z"/>
	</g>
</g>
</svg>
