<?xml version="1.0" encoding="utf-8"?>
<!-- Generator: Adobe Illustrator 21.0.2, SVG Export Plug-In . SVG Version: 6.00 Build 0)  -->
<!DOCTYPE svg PUBLIC "-//W3C//DTD SVG 1.1//EN" "http://www.w3.org/Graphics/SVG/1.1/DTD/svg11.dtd">
<svg version="1.1" id="Layer_1" xmlns="http://www.w3.org/2000/svg" xmlns:xlink="http://www.w3.org/1999/xlink" x="0px" y="0px"
	 viewBox="0 0 25 25" style="enable-background:new 0 0 25 25;" xml:space="preserve">
<style type="text/css">
	.st0{fill:#FFFFFF;}
</style>
<title>twitter</title>
<g id="_4OBHfx">
	<path class="st0" d="M7.5,18.3c-1.3,0-2.5-0.5-3.5-1.5c-0.6-0.6-1.1-1.3-1.3-2.1c0.8,0.1,1.5,0.1,2.3-0.1C2.6,14.1,0.9,12,0.9,9.5
		c0.7,0.4,1.5,0.6,2.3,0.6C1,8.7,0.3,5.7,1.6,3.3c1.3,1.6,2.9,2.9,4.7,3.8c1.8,0.9,3.8,1.5,5.9,1.6c0-0.1-0.1-0.3-0.1-0.4
		c0-0.4,0-0.8,0-1.2c0-0.5,0.2-1,0.3-1.5c0.4-1.1,1.3-2.1,2.4-2.6c0.5-0.3,1.1-0.5,1.6-0.5c0.4-0.1,0.8-0.1,1.3,0
		C19,2.5,20.1,3.1,20.9,4c0,0,0.1,0,0.1,0c0.8-0.2,1.6-0.4,2.4-0.8c0.2-0.1,0.5-0.3,0.7-0.4l0,0c-0.4,1.2-1.1,2.2-2.1,2.8
		c1-0.1,2-0.4,2.9-0.8L24.8,5c-0.6,0.8-1.3,1.6-2.1,2.2l-0.3,0.2c0,0,0,0.1,0,0.1c0,0.3,0,0.6,0,0.8s0,0.6,0,1
		c-0.1,0.7-0.2,1.5-0.5,2.2c-0.2,0.9-0.5,1.8-0.9,2.6c-0.4,1-1,1.9-1.6,2.8c-0.4,0.6-0.9,1.1-1.4,1.7c-2.2,2.2-5,3.6-8,4
		c-0.4,0-0.8,0.1-1.2,0.1c-0.5,0-1.1,0-1.7,0c-0.6,0-1.3-0.1-1.9-0.2c-1.4-0.2-2.7-0.7-4-1.3c-0.5-0.2-1-0.5-1.4-0.8h-0.1
		C2.6,20.8,5.3,20,7.5,18.3z"/>
</g>
</svg>
